<svg width="766" height="766" viewBox="0 0 766 766" fill="none" xmlns="http://www.w3.org/2000/svg">
<path d="M227.723 103.929C242.114 115.171 255.041 127.88 267.896 140.8C270.674 143.591 273.456 146.378 276.24 149.163C282.144 155.072 288.042 160.986 293.939 166.902C300.792 173.777 307.648 180.65 314.511 187.516C317.232 190.241 319.949 192.971 322.666 195.702C324.355 197.393 326.045 199.084 327.734 200.775C328.472 201.518 329.209 202.262 329.969 203.028C334.007 207.058 338.156 210.877 342.486 214.595C349.61 220.76 356.236 227.376 362.88 234.048C364.95 236.117 367.02 238.186 369.091 240.255C371.291 242.456 373.49 244.659 375.688 246.863C380.282 251.468 384.882 256.067 389.483 260.666C399.236 270.416 408.984 280.172 418.73 289.93C429.281 300.492 439.833 311.053 450.392 321.607C454.966 326.178 459.536 330.754 464.103 335.332C467.603 338.839 471.109 342.341 474.614 345.844C475.877 347.113 477.14 348.381 478.441 349.688C479.598 350.842 480.755 351.997 481.947 353.187C482.951 354.192 483.955 355.197 484.99 356.233C487.834 359.016 487.834 359.016 492.209 361.75C492.209 362.744 492.209 363.738 492.209 364.763C493.205 364.763 494.201 364.763 495.227 364.763C495.223 363.761 495.219 362.76 495.215 361.728C495.115 337.301 495.04 312.875 494.993 288.448C494.97 276.636 494.938 264.823 494.886 253.01C494.841 242.709 494.812 232.407 494.801 222.105C494.796 216.655 494.782 211.206 494.749 205.757C494.712 199.657 494.711 193.558 494.713 187.459C494.689 184.781 494.689 184.781 494.664 182.049C494.76 156.064 504.683 133.925 522.888 115.678C524.884 113.73 524.884 113.73 526.921 111.742C527.878 110.738 528.835 109.735 529.821 108.701C548.241 90.685 574.418 83.8278 599.399 84.0033C626.837 84.7815 651.451 95.6495 670.812 114.978C681.805 126.754 689.115 138.732 694.441 153.912C695.164 155.828 695.164 155.828 695.903 157.783C705.882 187.936 696.16 222.57 682.532 249.994C675.412 263.791 666.562 275.989 656.711 287.953C656.002 288.823 655.294 289.693 654.564 290.59C615.54 338.286 559.735 370.452 498.246 378.317C471.969 379.595 445.584 379.08 419.768 373.799C418.488 373.548 417.209 373.297 415.89 373.038C328.417 355.273 244.055 311.599 162.723 276.513C157.879 274.425 153.033 272.341 148.187 270.258C145.055 268.908 141.925 267.551 138.796 266.193C127.982 261.528 117.167 257.373 105.963 253.736C91.0256 247.518 80.0296 232.686 73.4556 218.362C63.6558 193.941 61.4174 170.383 71.8638 145.617C83.5406 120.299 102.682 100.659 128.83 90.2217C162.156 78.765 198.752 83.4589 227.723 103.929Z" fill="white"/>
<path d="M412.096 410.613C413.953 411.284 413.953 411.284 415.848 411.969C444.937 422.509 473.503 434.291 502.043 446.23C510.15 449.621 518.269 452.983 526.391 456.339C553.205 467.431 579.939 478.69 606.552 490.262C616.357 494.515 626.176 498.663 636.144 502.52C637.872 503.19 639.6 503.86 641.381 504.551C644.523 505.756 647.674 506.94 650.835 508.095C660.51 511.795 667.382 516.487 674.674 523.845C675.634 524.811 676.593 525.777 677.581 526.772C693.882 543.679 697.963 564.04 697.952 586.645C697.699 599.703 695.153 610.253 689.754 622.226C689.099 623.711 688.444 625.196 687.769 626.725C675.113 652.456 651.407 669.008 624.911 678.227C596.455 686.685 568.564 680.142 543.085 666.385C525.049 656.144 511.101 639.966 496.732 625.253C491.804 620.223 486.746 615.394 481.558 610.639C473.947 603.657 466.644 596.722 460.051 588.743C457.597 585.983 455.068 583.68 452.248 581.305C443.988 574.138 436.353 566.353 428.658 558.59C427 556.923 425.342 555.256 423.683 553.59C420.135 550.024 416.589 546.455 413.044 542.885C407.44 537.239 401.83 531.6 396.22 525.961C384.322 514.003 372.432 502.039 360.542 490.074C347.677 477.129 334.812 464.185 321.939 451.248C316.36 445.642 310.785 440.031 305.213 434.418C301.753 430.934 298.291 427.454 294.827 423.974C293.22 422.359 291.615 420.742 290.011 419.124C287.824 416.918 285.633 414.717 283.44 412.517C282.215 411.284 280.989 410.05 279.726 408.779C276.508 405.568 276.508 405.568 272.042 402.762C272.042 401.763 272.042 400.764 272.042 399.735C271.046 399.735 270.051 399.735 269.026 399.735C269.028 400.696 269.031 401.657 269.034 402.647C269.101 426.083 269.151 449.518 269.182 472.954C269.197 484.287 269.218 495.621 269.253 506.954C269.283 516.838 269.303 526.721 269.309 536.605C269.313 541.833 269.322 547.061 269.344 552.29C269.369 558.141 269.369 563.991 269.368 569.842C269.379 571.557 269.39 573.272 269.401 575.038C269.325 604.602 258.49 630.22 238.312 651.681C222.893 666.606 203.916 675.52 183.07 679.741C181.873 680.02 180.675 680.299 179.442 680.586C152.645 685.164 128.511 676.234 106.328 661.762C85.1539 645.756 71.217 623.209 66.101 597.152C62.5243 568.723 67.7473 543.19 80.5271 517.791C81.0208 516.8 81.5146 515.81 82.0233 514.789C111.039 457.546 163.431 415.008 223.746 394.657C286.362 374.652 352.032 388.776 412.096 410.613Z" fill="white"/>
</svg>
