<svg width="492" height="107" viewBox="0 0 492 107" fill="none" xmlns="http://www.w3.org/2000/svg">
<path d="M21.1063 18.4151C22.9728 19.8723 24.6496 21.5199 26.317 23.1948C26.6773 23.5566 27.0381 23.9178 27.3992 24.2788C28.165 25.0448 28.93 25.8116 29.6949 26.5785C30.5838 27.4697 31.4731 28.3606 32.3632 29.2506C32.7161 29.6039 33.0686 29.9579 33.4209 30.3118C33.64 30.5311 33.8592 30.7503 34.0784 30.9694C34.174 31.0659 34.2696 31.1622 34.3682 31.2615C34.8919 31.784 35.4302 32.2791 35.9917 32.761C36.9158 33.5603 37.7752 34.4178 38.637 35.2827C38.9055 35.551 39.174 35.8192 39.4425 36.0874C39.728 36.3728 40.0131 36.6583 40.2982 36.944C40.8941 37.5409 41.4908 38.1371 42.0875 38.7333C43.3526 39.9972 44.6169 41.262 45.8811 42.5269C47.2496 43.8961 48.6183 45.2651 49.9879 46.6333C50.5811 47.2259 51.1739 47.819 51.7663 48.4125C52.2203 48.8671 52.675 49.3211 53.1296 49.7752C53.2934 49.9396 53.4572 50.104 53.626 50.2734C53.776 50.4231 53.9261 50.5728 54.0808 50.7271C54.211 50.8574 54.3412 50.9877 54.4754 51.122C54.8444 51.4827 54.8444 51.4827 55.4116 51.8372C55.4116 51.9661 55.4116 52.0949 55.4116 52.2277C55.5409 52.2277 55.6702 52.2277 55.8033 52.2277C55.8027 52.0979 55.8022 51.968 55.8016 51.8342C55.7885 48.6678 55.7787 45.5013 55.7727 42.3349C55.77 40.8035 55.7656 39.2722 55.7591 37.7409C55.7531 36.4054 55.7493 35.07 55.7482 33.7345C55.7471 33.0281 55.7455 32.3217 55.7411 31.6153C55.7362 30.8246 55.7362 30.034 55.7367 29.2433C55.7335 28.8961 55.7335 28.8961 55.7302 28.542C55.7427 25.1735 57.03 22.3036 59.3913 19.9381C59.6498 19.6856 59.6498 19.6856 59.9144 19.4279C60.0382 19.2978 60.1625 19.1677 60.2902 19.0336C62.6793 16.6982 66.0747 15.8093 69.3153 15.8321C72.8738 15.9329 76.0664 17.3418 78.5776 19.8473C80.0035 21.374 80.952 22.9267 81.6425 24.8945C81.7364 25.1429 81.7364 25.1429 81.8324 25.3963C83.1267 29.3051 81.8656 33.7949 80.0978 37.3498C79.1744 39.1384 78.0267 40.7197 76.7487 42.2706C76.6571 42.3834 76.5649 42.4962 76.47 42.6125C71.4087 48.7954 64.1705 52.9652 56.1949 53.9848C52.7866 54.1504 49.3642 54.0837 46.0157 53.3991C45.8497 53.3665 45.6837 53.334 45.5127 53.3004C34.1669 50.9975 23.2246 45.3359 12.6753 40.7876C12.047 40.5169 11.4185 40.2467 10.79 39.9767C10.3836 39.8018 9.97773 39.6259 9.57186 39.4499C8.16911 38.8451 6.76636 38.3065 5.3131 37.835C3.37569 37.029 1.94943 35.1063 1.09674 33.2493C-0.17435 30.0836 -0.464681 27.0297 0.890286 23.8192C2.40484 20.5372 4.88762 17.9912 8.27918 16.6382C12.6018 15.153 17.3485 15.7615 21.1063 18.4151Z" fill="#080707"/>
<path d="M45.0206 58.1714C45.2615 58.2582 45.2615 58.2582 45.5073 58.3472C49.2803 59.7131 52.9855 61.2406 56.6875 62.7883C57.7391 63.2283 58.7918 63.6639 59.8456 64.099C63.3235 65.537 66.7909 66.9962 70.2425 68.4964C71.5145 69.0478 72.7882 69.5855 74.0809 70.0856C74.3051 70.1724 74.5293 70.2592 74.7606 70.3487C75.168 70.5048 75.5766 70.6582 75.9867 70.8084C77.2413 71.2877 78.1331 71.8958 79.0789 72.8501C79.2033 72.9751 79.3276 73.1001 79.4558 73.2295C81.57 75.4208 82.0996 78.0603 82.098 80.9908C82.0653 82.6837 81.7347 84.0512 81.0349 85.6033C80.9498 85.796 80.8647 85.9882 80.7775 86.1863C79.1356 89.5219 76.0609 91.6679 72.624 92.8629C68.9329 93.9591 65.3155 93.1113 62.0105 91.3278C59.6716 90.0001 57.8624 87.9027 55.9985 85.9958C55.3593 85.3434 54.7031 84.7178 54.0303 84.1015C53.0431 83.1963 52.0959 82.2972 51.2407 81.2627C50.9224 80.9051 50.5944 80.6065 50.2286 80.2986C49.1572 79.3694 48.1669 78.3606 47.1688 77.3539C46.9538 77.1377 46.7387 76.9221 46.5236 76.7059C46.0633 76.2435 45.6033 75.7811 45.1436 75.3182C44.4167 74.5861 43.6891 73.8551 42.9614 73.1241C41.4182 71.5743 39.8759 70.0233 38.3337 68.4724C36.6651 66.7942 34.9963 65.1161 33.3266 63.439C32.603 62.7124 31.8799 61.9847 31.1571 61.257C30.7084 60.8055 30.2593 60.3546 29.8101 59.9031C29.6017 59.694 29.3934 59.4844 29.1854 59.2747C28.9017 58.9887 28.6175 58.7032 28.3331 58.4182C28.1741 58.2582 28.0151 58.0983 27.8514 57.9334C27.434 57.5174 27.434 57.5174 26.8546 57.1533C26.8546 57.0239 26.8546 56.8945 26.8546 56.7613C26.7255 56.7613 26.5964 56.7613 26.4634 56.7613C26.4638 56.8858 26.4641 57.0103 26.4645 57.1386C26.4732 60.1766 26.4796 63.2146 26.4837 66.2527C26.4857 67.7217 26.4885 69.1913 26.4929 70.6604C26.4969 71.9417 26.4994 73.223 26.5003 74.5042C26.5007 75.1817 26.5019 75.8597 26.5048 76.5372C26.508 77.2955 26.5081 78.0543 26.5078 78.8126C26.5093 79.0348 26.5107 79.257 26.5121 79.4863C26.5023 83.3186 25.0969 86.6394 22.4797 89.4214C20.4797 91.3562 18.0183 92.5119 15.3145 93.0589C15.1592 93.0955 15.0039 93.1315 14.8438 93.1686C11.3681 93.762 8.23784 92.6047 5.36048 90.7284C2.61409 88.6533 0.806378 85.7305 0.142811 82.3529C-0.321121 78.6674 0.356338 75.3575 2.01396 72.0651C2.078 71.9368 2.14204 71.8085 2.20803 71.6758C5.97153 64.2552 12.7672 58.7408 20.5904 56.1029C28.7121 53.5096 37.2299 55.3403 45.0206 58.1714Z" fill="#070707"/>
<path d="M115.558 91.7143V15.7443H130.204L165.271 77.6973V15.7443H176.817V91.7143H161.636L127.104 31.1523V91.7143H115.558ZM215.342 92.9983C198.771 92.9983 188.401 81.2283 188.401 63.2523C188.401 45.2763 198.771 33.5063 215.021 33.5063C230.523 33.5063 241 44.5273 241 63.6803V66.5693H200.161C200.695 77.6973 206.361 83.2613 215.449 83.2613C222.077 83.2613 226.567 79.9443 228.385 74.5943L240.145 75.3433C237.151 85.9363 227.85 92.9983 215.342 92.9983ZM200.161 58.0093H229.026C228.278 47.9513 222.718 43.1363 215.021 43.1363C206.896 43.1363 201.443 48.3793 200.161 58.0093ZM261.292 91.7143L243.973 34.7903H255.839L268.027 79.3023L280.535 34.7903H291.226L303.735 79.3023L316.029 34.7903H327.896L310.577 91.7143H297.855L285.881 51.0543L273.907 91.7143H261.292ZM356.512 91.7143C345.714 91.7143 340.689 87.0063 340.689 76.3063V44.0993H332.03V34.7903H340.689V21.4153H352.022V34.7903H367.096V44.0993H352.022V75.4503C352.022 80.8003 354.267 82.4053 358.971 82.4053H367.096V91.7143H356.512ZM399.329 92.9983C383.079 92.9983 372.388 81.3353 372.388 63.2523C372.388 45.1693 383.079 33.5063 399.329 33.5063C415.58 33.5063 426.271 45.1693 426.271 63.2523C426.271 81.3353 415.58 92.9983 399.329 92.9983ZM399.329 83.1543C408.951 83.1543 414.51 75.7713 414.51 63.2523C414.51 50.7333 408.951 43.3503 399.329 43.3503C389.708 43.3503 384.148 50.7333 384.148 63.2523C384.148 75.7713 389.708 83.1543 399.329 83.1543ZM436.654 91.7143V34.7903H447.025L447.238 44.7413C450.232 36.9303 456.753 33.5063 464.558 33.5063C477.28 33.5063 483.801 42.7083 483.801 55.1203V91.7143H472.469V58.5443C472.469 48.4863 469.369 43.0293 461.457 43.0293C453.439 43.0293 447.987 48.4863 447.987 58.5443V91.7143H436.654Z" fill="black"/>
</svg>
